<svg xmlns="http://www.w3.org/2000/svg" width="24" height="24" viewBox="0 0 24 24" fill="none">
<path d="M12 0C18.6275 0 24 5.37247 24 12C24 18.6275 18.6275 24 12 24C5.37247 24 0 18.6275 0 12C0 5.37247 5.37247 0 12 0ZM12 4.23529C11.22 4.23529 10.5882 4.86706 10.5882 5.64706V12.5294L10.5932 12.648C10.6327 13.1195 10.9073 13.5431 11.3273 13.7704L15.5626 16.0645L15.6614 16.1139C16.3292 16.4104 17.1226 16.1492 17.4769 15.4962L17.5256 15.3974C17.8221 14.7296 17.5609 13.9362 16.908 13.5819L13.4118 11.6894V5.64706L13.4082 5.54118C13.3539 4.812 12.7447 4.23529 12 4.23529Z" fill="url(#paint0_linear)"/>
<defs>
<linearGradient id="paint0_linear" x1="12" y1="0" x2="12" y2="24" gradientUnits="userSpaceOnUse">
<stop stop-color="white"/>
<stop offset="1" stop-color="#DDDDDD"/>
</linearGradient>
</defs>
</svg>