<svg xmlns="http://www.w3.org/2000/svg" width="24" height="24" viewBox="0 0 24 24" fill="none">
<path fill-rule="evenodd" clip-rule="evenodd" d="M2.37178e-08 1.41364L7.09685 8.51049C6.85571 8.97174 6.71934 9.49643 6.71934 10.053C6.71934 11.8943 8.21203 13.387 10.0534 13.387C11.8947 13.387 13.3874 11.8943 13.3874 10.053C13.3874 8.21165 11.8947 6.71896 10.0534 6.71896C9.49691 6.71896 8.97231 6.85527 8.51112 7.09633L1.41478 -7.81129e-08L16.4718 3.63444L17.9866 11.2087L18.6825 10.5129C19.073 10.1223 19.7062 10.1223 20.0967 10.5129L23.5977 14.0139C23.9882 14.4044 23.9882 15.0376 23.5977 15.4281L15.4286 23.5972C15.0381 23.9877 14.405 23.9877 14.0144 23.5972L10.5134 20.0961C10.1229 19.7056 10.1229 19.0724 10.5134 18.6819L11.2089 17.9864L3.63466 16.4715L2.37178e-08 1.41364ZM9.11049 9.10992L9.09378 9.12625C8.86196 9.36624 8.71934 9.69295 8.71934 10.053C8.71934 10.7897 9.3166 11.387 10.0534 11.387C10.7901 11.387 11.3874 10.7897 11.3874 10.053C11.3874 9.31622 10.7901 8.71896 10.0534 8.71896C9.69339 8.71896 9.36672 8.86153 9.12674 9.09329L9.11049 9.10992ZM12.6347 19.389L14.7215 21.4758L21.4764 14.721L19.3896 12.6342L12.6347 19.389Z" fill="url(#paint0_linear)"/>
<defs>
<linearGradient id="paint0_linear" x1="11.9453" y1="0" x2="11.9453" y2="23.89" gradientUnits="userSpaceOnUse">
<stop stop-color="white"/>
<stop offset="1" stop-color="#DDDDDD"/>
</linearGradient>
</defs>
</svg>